<?xml version="1.0" encoding="iso-8859-1"?>
<!-- Generator: Adobe Illustrator 19.0.0, SVG Export Plug-In . SVG Version: 6.00 Build 0)  -->
<svg version="1.1" id="Capa_1" xmlns="http://www.w3.org/2000/svg" xmlns:xlink="http://www.w3.org/1999/xlink" x="0px" y="0px"
	 viewBox="0 0 512 512" style="enable-background:new 0 0 512 512;" xml:space="preserve">
<path style="fill:#F7E6A1;" d="M333.431,460.8H178.569H51.2v32.486c0,5.623,4.557,10.18,10.18,10.18h41.02H128h256h25.6V460.8
	H333.431z"/>
<path style="fill:#DD352E;" d="M440.158,8.567H60.015c-4.727,0-8.559,3.831-8.559,8.567v85.231v256.077v110.891H409.6v-156.86
	V59.733h51.2V29.218C460.8,17.809,451.558,8.567,440.158,8.567z"/>
<rect x="162.133" y="85.333" style="fill:#F7E6A1;" width="204.8" height="128"/>
<path style="fill:#B02721;" d="M119.467,8.533H59.767c-4.736,0-8.567,3.831-8.567,8.567v452.233h68.267V8.533z"/>
<rect x="409.6" y="418.133" style="fill:#25AE88;" width="51.2" height="85.333"/>
<rect x="409.6" y="59.733" style="fill:#EBBA16;" width="51.2" height="85.333"/>
<rect x="409.6" y="298.667" style="fill:#366DB6;" width="51.2" height="85.333"/>
<rect x="409.6" y="179.2" style="fill:#ED8A19;" width="51.2" height="85.333"/>
<g>
	<path style="fill:#4D007E;" d="M366.933,221.867h-204.8c-4.71,0-8.533-3.814-8.533-8.533v-128c0-4.719,3.823-8.533,8.533-8.533
		h204.8c4.71,0,8.533,3.814,8.533,8.533v128C375.467,218.052,371.644,221.867,366.933,221.867z M170.667,204.8H358.4V93.867H170.667
		V204.8z"/>
	<path style="fill:#4D007E;" d="M298.667,136.533H230.4c-4.71,0-8.533-3.814-8.533-8.533c0-4.719,3.823-8.533,8.533-8.533h68.267
		c4.71,0,8.533,3.814,8.533,8.533C307.2,132.719,303.377,136.533,298.667,136.533z"/>
	<path style="fill:#4D007E;" d="M324.267,179.2H204.8c-4.71,0-8.533-3.814-8.533-8.533c0-4.719,3.823-8.533,8.533-8.533h119.467
		c4.71,0,8.533,3.814,8.533,8.533C332.8,175.386,328.977,179.2,324.267,179.2z"/>
	<path style="fill:#4D007E;" d="M119.467,477.867H51.2c-4.71,0-8.533-3.814-8.533-8.533V17.101C42.667,7.671,50.338,0,59.767,0
		h59.699C124.177,0,128,3.814,128,8.533v460.8C128,474.052,124.177,477.867,119.467,477.867z M59.733,460.8h51.2V17.067H59.767
		L59.733,460.8z"/>
	<path style="fill:#4D007E;" d="M409.6,477.867H51.456c-4.71,0-8.533-3.814-8.533-8.533V17.135c0-9.421,7.671-17.101,17.092-17.101
		h380.143c16.085,0,29.175,13.09,29.175,29.184v30.515c0,4.719-3.823,8.533-8.533,8.533h-42.667v401.067
		C418.133,474.052,414.31,477.867,409.6,477.867z M59.989,460.8h341.077V59.733c0-4.719,3.823-8.533,8.533-8.533h42.667V29.218
		c0-6.682-5.427-12.117-12.109-12.117H60.015L59.989,460.8z"/>
	<path style="fill:#4D007E;" d="M409.6,512H61.38c-10.317,0-18.714-8.397-18.714-18.714v-23.953c0-4.719,3.823-8.533,8.533-8.533
		h358.4c4.71,0,8.533,3.814,8.533,8.533v34.133C418.133,508.186,414.31,512,409.6,512z M59.733,477.867v15.42
		c0,0.905,0.742,1.647,1.647,1.647h339.686v-17.067H59.733z"/>
	<path style="fill:#4D007E;" d="M85.333,76.8H51.2c-4.71,0-8.533-3.814-8.533-8.533s3.823-8.533,8.533-8.533h34.133
		c4.71,0,8.533,3.814,8.533,8.533C93.867,72.986,90.044,76.8,85.333,76.8z"/>
	<path style="fill:#4D007E;" d="M85.333,119.467H51.2c-4.71,0-8.533-3.814-8.533-8.533c0-4.719,3.823-8.533,8.533-8.533h34.133
		c4.71,0,8.533,3.814,8.533,8.533C93.867,115.652,90.044,119.467,85.333,119.467z"/>
	<path style="fill:#4D007E;" d="M85.333,162.133H51.2c-4.71,0-8.533-3.814-8.533-8.533s3.823-8.533,8.533-8.533h34.133
		c4.71,0,8.533,3.814,8.533,8.533S90.044,162.133,85.333,162.133z"/>
	<path style="fill:#4D007E;" d="M85.333,204.8H51.2c-4.71,0-8.533-3.814-8.533-8.533s3.823-8.533,8.533-8.533h34.133
		c4.71,0,8.533,3.814,8.533,8.533S90.044,204.8,85.333,204.8z"/>
	<path style="fill:#4D007E;" d="M85.333,247.467H51.2c-4.71,0-8.533-3.814-8.533-8.533c0-4.719,3.823-8.533,8.533-8.533h34.133
		c4.71,0,8.533,3.814,8.533,8.533C93.867,243.652,90.044,247.467,85.333,247.467z"/>
	<path style="fill:#4D007E;" d="M85.333,290.133H51.2c-4.71,0-8.533-3.814-8.533-8.533c0-4.719,3.823-8.533,8.533-8.533h34.133
		c4.71,0,8.533,3.814,8.533,8.533C93.867,286.319,90.044,290.133,85.333,290.133z"/>
	<path style="fill:#4D007E;" d="M85.333,332.8H51.2c-4.71,0-8.533-3.814-8.533-8.533c0-4.719,3.823-8.533,8.533-8.533h34.133
		c4.71,0,8.533,3.814,8.533,8.533C93.867,328.986,90.044,332.8,85.333,332.8z"/>
	<path style="fill:#4D007E;" d="M85.333,375.467H51.2c-4.71,0-8.533-3.814-8.533-8.533c0-4.719,3.823-8.533,8.533-8.533h34.133
		c4.71,0,8.533,3.814,8.533,8.533C93.867,371.652,90.044,375.467,85.333,375.467z"/>
	<path style="fill:#4D007E;" d="M85.333,418.133H51.2c-4.71,0-8.533-3.814-8.533-8.533c0-4.719,3.823-8.533,8.533-8.533h34.133
		c4.71,0,8.533,3.814,8.533,8.533C93.867,414.319,90.044,418.133,85.333,418.133z"/>
	<path style="fill:#4D007E;" d="M460.8,512h-51.2c-4.71,0-8.533-3.814-8.533-8.533v-85.333c0-4.719,3.823-8.533,8.533-8.533h51.2
		c4.71,0,8.533,3.814,8.533,8.533v85.333C469.333,508.186,465.51,512,460.8,512z M418.133,494.933h34.133v-68.267h-34.133V494.933z"
		/>
	<path style="fill:#4D007E;" d="M460.8,153.6h-51.2c-4.71,0-8.533-3.814-8.533-8.533V59.733c0-4.719,3.823-8.533,8.533-8.533h51.2
		c4.71,0,8.533,3.814,8.533,8.533v85.333C469.333,149.786,465.51,153.6,460.8,153.6z M418.133,136.533h34.133V68.267h-34.133
		V136.533z"/>
	<path style="fill:#4D007E;" d="M460.8,392.533h-51.2c-4.71,0-8.533-3.814-8.533-8.533v-85.333c0-4.719,3.823-8.533,8.533-8.533
		h51.2c4.71,0,8.533,3.814,8.533,8.533V384C469.333,388.719,465.51,392.533,460.8,392.533z M418.133,375.467h34.133V307.2h-34.133
		V375.467z"/>
	<path style="fill:#4D007E;" d="M460.8,273.067h-51.2c-4.71,0-8.533-3.814-8.533-8.533V179.2c0-4.719,3.823-8.533,8.533-8.533h51.2
		c4.71,0,8.533,3.814,8.533,8.533v85.333C469.333,269.252,465.51,273.067,460.8,273.067z M418.133,256h34.133v-68.267h-34.133V256z"
		/>
	<path style="fill:#4D007E;" d="M281.6,349.867H162.133c-4.71,0-8.533-3.814-8.533-8.533c0-4.719,3.823-8.533,8.533-8.533H281.6
		c4.71,0,8.533,3.814,8.533,8.533C290.133,346.052,286.31,349.867,281.6,349.867z"/>
	<path style="fill:#4D007E;" d="M366.933,349.867h-51.2c-4.71,0-8.533-3.814-8.533-8.533c0-4.719,3.823-8.533,8.533-8.533h51.2
		c4.71,0,8.533,3.814,8.533,8.533C375.467,346.052,371.644,349.867,366.933,349.867z"/>
	<path style="fill:#4D007E;" d="M366.933,392.533H247.467c-4.71,0-8.533-3.814-8.533-8.533c0-4.719,3.823-8.533,8.533-8.533h119.467
		c4.71,0,8.533,3.814,8.533,8.533C375.467,388.719,371.644,392.533,366.933,392.533z"/>
	<path style="fill:#4D007E;" d="M213.333,392.533h-51.2c-4.71,0-8.533-3.814-8.533-8.533c0-4.719,3.823-8.533,8.533-8.533h51.2
		c4.71,0,8.533,3.814,8.533,8.533C221.867,388.719,218.044,392.533,213.333,392.533z"/>
	<path style="fill:#4D007E;" d="M366.933,307.2H247.467c-4.71,0-8.533-3.814-8.533-8.533c0-4.719,3.823-8.533,8.533-8.533h119.467
		c4.71,0,8.533,3.814,8.533,8.533C375.467,303.386,371.644,307.2,366.933,307.2z"/>
	<path style="fill:#4D007E;" d="M213.333,307.2h-51.2c-4.71,0-8.533-3.814-8.533-8.533c0-4.719,3.823-8.533,8.533-8.533h51.2
		c4.71,0,8.533,3.814,8.533,8.533C221.867,303.386,218.044,307.2,213.333,307.2z"/>
</g>
<g>
</g>
<g>
</g>
<g>
</g>
<g>
</g>
<g>
</g>
<g>
</g>
<g>
</g>
<g>
</g>
<g>
</g>
<g>
</g>
<g>
</g>
<g>
</g>
<g>
</g>
<g>
</g>
<g>
</g>
</svg>
