<?xml version="1.0" encoding="iso-8859-1"?>
<!-- Generator: Adobe Illustrator 19.0.0, SVG Export Plug-In . SVG Version: 6.00 Build 0)  -->
<svg version="1.1" id="Layer_1" xmlns="http://www.w3.org/2000/svg" xmlns:xlink="http://www.w3.org/1999/xlink" x="0px" y="0px"
	 viewBox="0 0 512 512" style="enable-background:new 0 0 512 512;" xml:space="preserve">
<rect x="379.925" y="119.91" style="fill:#FBA218;" width="48.031" height="128.092"/>
<rect x="379.925" y="247.992" style="fill:#F14507;" width="48.031" height="128.092"/>
<rect x="379.925" y="376.084" style="fill:#FBA218;" width="48.031" height="128.092"/>
<polygon style="fill:#84DCCF;" points="379.924,504.172 83.718,504.172 83.718,7.828 427.957,7.828 427.957,119.906
	379.924,119.906 "/>
<rect x="163.776" y="87.879" style="fill:#FFFFFF;" width="168.118" height="80.051"/>
<rect x="81.352" y="7.828" style="fill:#027EA8;" width="36.089" height="496.349"/>
<polygon points="436.11,256.002 395.406,256.002 395.406,240.347 420.455,240.347 420.455,135.977 436.11,135.977 "/>
<polygon points="436.11,384.376 395.406,384.376 395.406,368.721 420.455,368.721 420.455,264.352 436.11,264.352 "/>
<polygon points="436.11,511.707 395.406,511.707 395.406,496.051 420.455,496.051 420.455,391.682 436.11,391.682 "/>
<rect x="395.403" y="143.278" width="15.655" height="16.699"/>
<rect x="395.403" y="176.676" width="15.655" height="15.655"/>
<rect x="395.403" y="207.987" width="15.655" height="15.655"/>
<rect x="395.403" y="23.259" width="15.655" height="16.699"/>
<rect x="395.403" y="55.608" width="15.655" height="16.699"/>
<rect x="395.403" y="87.962" width="15.655" height="16.699"/>
<rect x="395.403" y="271.663" width="15.655" height="16.699"/>
<rect x="395.403" y="304.017" width="15.655" height="15.655"/>
<rect x="395.403" y="335.328" width="15.655" height="16.699"/>
<rect x="395.403" y="400.037" width="15.655" height="16.699"/>
<rect x="395.403" y="432.391" width="15.655" height="15.655"/>
<rect x="395.403" y="463.702" width="15.655" height="16.699"/>
<path d="M75.89,0v512h311.862V127.733h48.033V0H75.89z M420.13,112.078h-48.033v384.267H124.046v-7.599h-16.699v7.599H91.545V15.655
	h15.8v7.603h16.699v-7.603h296.084v96.423H420.13z"/>
<rect x="107.344" y="328.022" width="16.699" height="15.655"/>
<rect x="107.344" y="360.377" width="16.699" height="15.655"/>
<rect x="107.344" y="296.711" width="16.699" height="15.655"/>
<rect x="107.344" y="456.396" width="16.699" height="15.655"/>
<rect x="107.344" y="424.042" width="16.699" height="15.655"/>
<rect x="107.344" y="391.687" width="16.699" height="15.655"/>
<rect x="107.344" y="264.346" width="16.699" height="15.655"/>
<rect x="107.344" y="72.307" width="16.699" height="15.655"/>
<rect x="107.344" y="39.953" width="16.699" height="15.655"/>
<rect x="107.344" y="104.661" width="16.699" height="15.655"/>
<rect x="107.344" y="231.992" width="16.699" height="15.655"/>
<rect x="107.344" y="135.972" width="16.699" height="15.655"/>
<rect x="107.344" y="199.637" width="16.699" height="15.655"/>
<rect x="107.344" y="168.327" width="16.699" height="15.655"/>
<path d="M339.719,175.766H155.945V80.055h183.772v95.711H339.719z M171.601,160.111h152.462v-64.4H171.601V160.111z"/>
<rect x="196.058" y="120.317" width="104.369" height="15.655"/>
<rect x="155.354" y="192.332" style="fill:#FBB03B;" width="97.063" height="15.655"/>
<rect x="155.354" y="224.686" width="56.359" height="15.655"/>
<rect x="227.368" y="224.686" style="fill:#F15A24;" width="40.704" height="15.655"/>
<g>
</g>
<g>
</g>
<g>
</g>
<g>
</g>
<g>
</g>
<g>
</g>
<g>
</g>
<g>
</g>
<g>
</g>
<g>
</g>
<g>
</g>
<g>
</g>
<g>
</g>
<g>
</g>
<g>
</g>
</svg>
